<?xml version="1.0" encoding="utf-8"?>
<!-- Generator: Adobe Illustrator 24.1.0, SVG Export Plug-In . SVG Version: 6.00 Build 0)  -->
<svg version="1.1" id="Layer_1" xmlns="http://www.w3.org/2000/svg" xmlns:xlink="http://www.w3.org/1999/xlink" x="0px" y="0px"
	 viewBox="0 0 149.7 173.2" style="enable-background:new 0 0 149.7 173.2;" xml:space="preserve">
<style type="text/css">
	.st0{fill:#410096;}
	.st1{fill:#00DC7D;}
	.st2{fill:#1E1919;stroke:#1E1919;stroke-width:0.2;stroke-miterlimit:10;}
</style>
<g>
	<g>
		<g>
			<g>
				<path class="st0" d="M84,38.2c0-1.8,1.3-4,2.8-4.9l9.4-5.5c1.6-0.9,2.8-0.2,2.8,1.6l0,11.5c0,1.8-1.3,4-2.8,4.9l-9.4,5.5
					c-1.6,0.9-2.8,0.2-2.8-1.6L84,38.2z"/>
			</g>
		</g>
	</g>
	<g>
		<g>
			<g>
				<path class="st1" d="M51.4,81.1c0-1.8,1.3-4,2.8-4.9l42-24.4c1.6-0.9,2.8-0.2,2.8,1.6l0,11.5c0,1.8-1.3,4-2.8,4.9l-42,24.4
					c-1.6,0.9-2.8,0.2-2.8-1.6L51.4,81.1z"/>
			</g>
		</g>
	</g>
	<g>
		<g>
			<g>
				<path class="st0" d="M63.8,26c0-1.8,1.3-4,2.8-4.9l14.6-8.5c1.6-0.9,2.8-0.2,2.8,1.6L84,31.6c0,1.8-1.3,4-2.8,4.9L66.5,45
					c-1.6,0.9-2.8,0.2-2.8-1.6L63.8,26z"/>
			</g>
		</g>
	</g>
	<g>
		<g>
			<g>
				<path class="st0" d="M42.8,10.8c0-1.8,1.3-4,2.8-4.9L55,0.4c1.6-0.9,2.8-0.2,2.8,1.6l0,11.4c0,1.8-1.3,4-2.8,4.9l-9.4,5.5
					c-1.6,0.9-2.8,0.2-2.8-1.6L42.8,10.8z"/>
			</g>
		</g>
	</g>
	<g>
		<g>
			<g>
				<path class="st1" d="M66.1,102.6c0-1.8,1.3-4,2.8-4.9l9.4-5.4c1.6-0.9,2.8-0.2,2.8,1.6l0,11.5c0,1.8-1.3,4-2.8,4.9l-9.4,5.4
					c-1.6,0.9-2.8,0.2-2.8-1.6L66.1,102.6z"/>
			</g>
		</g>
	</g>
</g>
<g>
	<path class="st2" d="M18.4,142.8c1.8,1,3.2,2.4,4.2,4.1c1,1.8,1.5,3.8,1.5,6.2s-0.5,4.4-1.5,6.2c-1,1.8-2.4,3.2-4.2,4.2
		c-1.8,1-3.8,1.5-6,1.5c-1.7,0-3.2-0.3-4.6-1s-2.6-1.6-3.5-2.8v12H0.1v-31.6h4v3.7c0.9-1.3,2.1-2.2,3.5-2.9c1.4-0.7,3-1,4.7-1
		C14.6,141.3,16.6,141.8,18.4,142.8z M16,160.2c1.2-0.7,2.1-1.6,2.8-2.9c0.7-1.2,1-2.7,1-4.3c0-1.6-0.3-3-1-4.3
		c-0.7-1.2-1.6-2.2-2.8-2.9c-1.2-0.7-2.5-1-4-1c-1.5,0-2.8,0.3-3.9,1c-1.2,0.7-2.1,1.6-2.8,2.9c-0.7,1.2-1,2.6-1,4.2
		c0,1.6,0.3,3,1,4.3c0.7,1.2,1.6,2.2,2.8,2.9c1.2,0.7,2.5,1,4,1C13.5,161.3,14.8,160.9,16,160.2z"/>
	<path class="st2" d="M36.1,142.4c1.4-0.7,3.2-1,5.2-1v4.1c-0.2,0-0.6,0-1,0c-2.3,0-4.1,0.7-5.3,2c-1.3,1.4-1.9,3.3-1.9,5.8v11.5
		h-4.2v-23.1h4v3.9C33.6,144.1,34.7,143.1,36.1,142.4z"/>
	<path class="st2" d="M46.5,136.3c-0.5-0.5-0.8-1.2-0.8-1.9c0-0.8,0.3-1.4,0.8-1.9c0.5-0.5,1.2-0.8,2-0.8c0.8,0,1.5,0.3,2,0.8
		c0.5,0.5,0.8,1.1,0.8,1.9c0,0.8-0.3,1.4-0.8,2c-0.5,0.5-1.2,0.8-2,0.8C47.7,137.1,47,136.8,46.5,136.3z M46.4,141.5h4.2v23.1h-4.2
		V141.5z"/>
	<path class="st2" d="M93.8,143.8c1.7,1.7,2.6,4.2,2.6,7.5v13.3h-4.2v-12.8c0-2.2-0.5-3.9-1.5-5.1c-1-1.1-2.5-1.7-4.4-1.7
		c-2.1,0-3.8,0.7-5.1,2c-1.3,1.3-1.9,3.2-1.9,5.7v11.9h-4.2v-12.8c0-2.2-0.5-3.9-1.5-5.1c-1-1.1-2.5-1.7-4.4-1.7
		c-2.1,0-3.8,0.7-5.1,2c-1.3,1.3-1.9,3.2-1.9,5.7v11.9H58v-23.1h4v3.4c0.8-1.2,1.9-2.1,3.3-2.7c1.4-0.6,2.9-0.9,4.7-0.9
		c1.8,0,3.4,0.4,4.8,1.1c1.4,0.7,2.5,1.8,3.2,3.2c0.9-1.3,2.1-2.4,3.6-3.1c1.6-0.8,3.3-1.1,5.3-1.1
		C89.8,141.3,92.1,142.2,93.8,143.8z"/>
	<path class="st2" d="M124.4,154.5h-18.8c0.3,2,1.2,3.7,2.7,4.9c1.5,1.2,3.4,1.9,5.7,1.9c2.8,0,5-0.9,6.7-2.8l2.3,2.7
		c-1,1.2-2.3,2.2-3.9,2.8c-1.6,0.6-3.3,1-5.2,1c-2.4,0-4.6-0.5-6.5-1.5c-1.9-1-3.4-2.4-4.4-4.2c-1-1.8-1.5-3.8-1.5-6.1
		c0-2.2,0.5-4.3,1.5-6.1c1-1.8,2.4-3.2,4.1-4.2c1.8-1,3.7-1.5,6-1.5c2.2,0,4.2,0.5,5.9,1.5c1.7,1,3.1,2.4,4.1,4.2
		c1,1.8,1.5,3.9,1.5,6.2C124.5,153.6,124.5,154,124.4,154.5z M108,146.7c-1.4,1.2-2.1,2.8-2.4,4.8h14.8c-0.2-1.9-1-3.5-2.4-4.8
		c-1.4-1.2-3-1.9-5-1.9C111,144.9,109.4,145.5,108,146.7z"/>
	<path class="st2" d="M144.7,164.7l-6.7-8.9l-6.8,8.9h-4.7l9.1-11.8l-8.7-11.3h4.7l6.4,8.3l6.3-8.3h4.6l-8.7,11.3l9.2,11.8H144.7z"
		/>
</g>
</svg>
