<svg width="48" height="48" viewBox="0 0 48 48" fill="none" xmlns="http://www.w3.org/2000/svg">
<rect width="48" height="48" fill="#152432"/>
<path d="M21.0331 13.1748H35.5629V17.5049H16.8909C16.8246 17.5049 16.8338 17.5049 16.7695 17.5049V17.3746C16.7695 15.0557 18.679 13.1748 21.0331 13.1748Z" fill="#D3FF5C"/>
<path d="M16.7695 30.6255V30.4951C16.8338 30.4951 16.8246 30.4951 16.8909 30.4951H35.5629V34.8252H21.0331C18.679 34.8252 16.7695 32.9443 16.7695 30.6255Z" fill="#D3FF5C"/>
<path d="M31.3386 21.835H16.6914V26.1651H31.3386V21.835Z" fill="#D3FF5C"/>
<path d="M12.4336 21.835V26.1651C12.4336 28.5563 14.3757 30.4953 16.7706 30.4953V17.5049C14.3757 17.5049 12.4336 19.4439 12.4336 21.835Z" fill="#D3FF5C"/>
</svg>
